<svg xmlns="http://www.w3.org/2000/svg" viewBox="0 0 128 128" fill="none">
  <defs>
    <linearGradient id="nexoraBlue" x1="27" y1="19" x2="103" y2="107" gradientUnits="userSpaceOnUse">
      <stop stop-color="#05D5F2"/>
      <stop offset=".5" stop-color="#087DEB"/>
      <stop offset="1" stop-color="#073A9A"/>
    </linearGradient>
    <linearGradient id="nexoraDepth" x1="40" y1="40" x2="93" y2="98" gradientUnits="userSpaceOnUse">
      <stop stop-color="#0649B2"/>
      <stop offset="1" stop-color="#061D4E"/>
    </linearGradient>
  </defs>
  <circle cx="64" cy="64" r="61" fill="#fff"/>
  <path d="M27 88V39c0-13 15-19 24-9l27 30V39c0-13 19-13 19 0v49c0 13-15 19-24 9L46 67v21c0 13-19 13-19 0Z" fill="url(#nexoraBlue)"/>
  <path d="M27 61v27c0 13 19 13 19 0V67L27 51v10Z" fill="url(#nexoraDepth)" opacity=".94"/>
  <path d="M78 60 98 41v47c0 13-15 19-24 9L61 82l17-22Z" fill="url(#nexoraDepth)" opacity=".96"/>
  <path d="M14 78c22 24 79 15 99-12 11-15 5-26-8-29" stroke="#06BFEF" stroke-width="5" stroke-linecap="round"/>
  <path d="M14 78c22 24 79 15 99-12" stroke="#fff" stroke-opacity=".72" stroke-width="1.4" stroke-linecap="round"/>
</svg>
